{
    "asset" : {
        "generator" : "Khronos glTF Blender I/O v1.7.33",
        "version" : "2.0"
    },
    "scene" : 0,
    "scenes" : [
        {
            "name" : "Scene",
            "nodes" : [
                0,
                1,
                2,
                3,
                4,
                5
            ]
        }
    ],
    "nodes" : [
        {
            "mesh" : 0,
            "name" : "Cylinder",
            "scale" : [
                0.16983765363693237,
                1,
                0.16983765363693237
            ],
            "translation" : [
                0,
                0.9065201282501221,
                0
            ]
        },
        {
            "mesh" : 1,
            "name" : "Icosphere",
            "scale" : [
                1.6207942962646484,
                1.6207942962646484,
                1.6207942962646484
            ],
            "translation" : [
                1.0518624782562256,
                7.228188991546631,
                0
            ]
        },
        {
            "mesh" : 2,
            "name" : "Cylinder.001",
            "rotation" : [
                -0.023933297023177147,
                -0.001288602827116847,
                -0.2603732645511627,
                0.965210497379303
            ],
            "scale" : [
                0.12379714846611023,
                0.30423927307128906,
                0.12379717081785202
            ],
            "translation" : [
                0.11811225116252899,
                4.667940139770508,
                0.09870391339063644
            ]
        },
        {
            "mesh" : 3,
            "name" : "Cylinder.002",
            "rotation" : [
                0,
                0,
                0.36321163177490234,
                0.9317066669464111
            ],
            "scale" : [
                -0.12379714846611023,
                0.30423930287361145,
                0.12379717081785202
            ],
            "translation" : [
                -0.13741905987262726,
                2.992790937423706,
                0.06389210373163223
            ]
        },
        {
            "mesh" : 4,
            "name" : "Cylinder.003",
            "rotation" : [
                0,
                0,
                -0.3565528690814972,
                0.9342752695083618
            ],
            "scale" : [
                0.12379713356494904,
                0.30423930287361145,
                0.12379717081785202
            ],
            "translation" : [
                0.18148398399353027,
                6.427130699157715,
                0
            ]
        },
        {
            "mesh" : 5,
            "name" : "Icosphere.001",
            "rotation" : [
                -0.01979825645685196,
                -0.017850356176495552,
                0.14838196337223053,
                0.9885708093643188
            ],
            "scale" : [
                1.7055569887161255,
                1.7055569887161255,
                1.7055569887161255
            ],
            "translation" : [
                -1.3778247833251953,
                5.499032974243164,
                0
            ]
        }
    ],
    "materials" : [
        {
            "doubleSided" : true,
            "name" : "Material.001",
            "pbrMetallicRoughness" : {
                "baseColorFactor" : [
                    0.26676055788993835,
                    0.07613271474838257,
                    0.03488757088780403,
                    1
                ],
                "metallicFactor" : 0,
                "roughnessFactor" : 0.5
            }
        },
        {
            "doubleSided" : true,
            "name" : "Material.002",
            "pbrMetallicRoughness" : {
                "baseColorFactor" : [
                    0.01331101544201374,
                    0.8000000715255737,
                    0.06534340977668762,
                    1
                ],
                "metallicFactor" : 0,
                "roughnessFactor" : 0.5
            }
        }
    ],
    "meshes" : [
        {
            "name" : "Cylinder",
            "primitives" : [
                {
                    "attributes" : {
                        "POSITION" : 0,
                        "NORMAL" : 1,
                        "TEXCOORD_0" : 2
                    },
                    "indices" : 3,
                    "material" : 0
                }
            ]
        },
        {
            "name" : "Icosphere",
            "primitives" : [
                {
                    "attributes" : {
                        "POSITION" : 4,
                        "NORMAL" : 5,
                        "TEXCOORD_0" : 6
                    },
                    "indices" : 7,
                    "material" : 1
                }
            ]
        },
        {
            "name" : "Cylinder.001",
            "primitives" : [
                {
                    "attributes" : {
                        "POSITION" : 8,
                        "NORMAL" : 9,
                        "TEXCOORD_0" : 10
                    },
                    "indices" : 3,
                    "material" : 0
                }
            ]
        },
        {
            "name" : "Cylinder.002",
            "primitives" : [
                {
                    "attributes" : {
                        "POSITION" : 11,
                        "NORMAL" : 12,
                        "TEXCOORD_0" : 13
                    },
                    "indices" : 3,
                    "material" : 0
                }
            ]
        },
        {
            "name" : "Cylinder.003",
            "primitives" : [
                {
                    "attributes" : {
                        "POSITION" : 14,
                        "NORMAL" : 15,
                        "TEXCOORD_0" : 16
                    },
                    "indices" : 3
                }
            ]
        },
        {
            "name" : "Icosphere.001",
            "primitives" : [
                {
                    "attributes" : {
                        "POSITION" : 17,
                        "NORMAL" : 18,
                        "TEXCOORD_0" : 19
                    },
                    "indices" : 7,
                    "material" : 1
                }
            ]
        }
    ],
    "accessors" : [
        {
            "bufferView" : 0,
            "componentType" : 5126,
            "count" : 576,
            "max" : [
                1.0000022649765015,
                6.300298690795898,
                1.7041038274765015
            ],
            "min" : [
                -2.4209864139556885,
                -1,
                -1
            ],
            "type" : "VEC3"
        },
        {
            "bufferView" : 1,
            "componentType" : 5126,
            "count" : 576,
            "type" : "VEC3"
        },
        {
            "bufferView" : 2,
            "componentType" : 5126,
            "count" : 576,
            "type" : "VEC2"
        },
        {
            "bufferView" : 3,
            "componentType" : 5123,
            "count" : 948,
            "type" : "SCALAR"
        },
        {
            "bufferView" : 4,
            "componentType" : 5126,
            "count" : 240,
            "max" : [
                0.9510578513145447,
                1,
                0.9999999403953552
            ],
            "min" : [
                -0.9510578513145447,
                -1,
                -0.9999999403953552
            ],
            "type" : "VEC3"
        },
        {
            "bufferView" : 5,
            "componentType" : 5126,
            "count" : 240,
            "type" : "VEC3"
        },
        {
            "bufferView" : 6,
            "componentType" : 5126,
            "count" : 240,
            "type" : "VEC2"
        },
        {
            "bufferView" : 7,
            "componentType" : 5123,
            "count" : 240,
            "type" : "SCALAR"
        },
        {
            "bufferView" : 8,
            "componentType" : 5126,
            "count" : 576,
            "max" : [
                1.0000022649765015,
                6.300298690795898,
                1.7041038274765015
            ],
            "min" : [
                -2.4209864139556885,
                -1,
                -1
            ],
            "type" : "VEC3"
        },
        {
            "bufferView" : 9,
            "componentType" : 5126,
            "count" : 576,
            "type" : "VEC3"
        },
        {
            "bufferView" : 10,
            "componentType" : 5126,
            "count" : 576,
            "type" : "VEC2"
        },
        {
            "bufferView" : 11,
            "componentType" : 5126,
            "count" : 576,
            "max" : [
                1.0000022649765015,
                6.300298690795898,
                1.7041038274765015
            ],
            "min" : [
                -2.4209864139556885,
                -1,
                -1
            ],
            "type" : "VEC3"
        },
        {
            "bufferView" : 12,
            "componentType" : 5126,
            "count" : 576,
            "type" : "VEC3"
        },
        {
            "bufferView" : 13,
            "componentType" : 5126,
            "count" : 576,
            "type" : "VEC2"
        },
        {
            "bufferView" : 14,
            "componentType" : 5126,
            "count" : 576,
            "max" : [
                1.0000022649765015,
                6.300298690795898,
                1.7041038274765015
            ],
            "min" : [
                -2.4209864139556885,
                -1,
                -1
            ],
            "type" : "VEC3"
        },
        {
            "bufferView" : 15,
            "componentType" : 5126,
            "count" : 576,
            "type" : "VEC3"
        },
        {
            "bufferView" : 16,
            "componentType" : 5126,
            "count" : 576,
            "type" : "VEC2"
        },
        {
            "bufferView" : 17,
            "componentType" : 5126,
            "count" : 240,
            "max" : [
                0.9510578513145447,
                1,
                0.9999999403953552
            ],
            "min" : [
                -0.9510578513145447,
                -1,
                -0.9999999403953552
            ],
            "type" : "VEC3"
        },
        {
            "bufferView" : 18,
            "componentType" : 5126,
            "count" : 240,
            "type" : "VEC3"
        },
        {
            "bufferView" : 19,
            "componentType" : 5126,
            "count" : 240,
            "type" : "VEC2"
        }
    ],
    "bufferViews" : [
        {
            "buffer" : 0,
            "byteLength" : 6912,
            "byteOffset" : 0
        },
        {
            "buffer" : 0,
            "byteLength" : 6912,
            "byteOffset" : 6912
        },
        {
            "buffer" : 0,
            "byteLength" : 4608,
            "byteOffset" : 13824
        },
        {
            "buffer" : 0,
            "byteLength" : 1896,
            "byteOffset" : 18432
        },
        {
            "buffer" : 0,
            "byteLength" : 2880,
            "byteOffset" : 20328
        },
        {
            "buffer" : 0,
            "byteLength" : 2880,
            "byteOffset" : 23208
        },
        {
            "buffer" : 0,
            "byteLength" : 1920,
            "byteOffset" : 26088
        },
        {
            "buffer" : 0,
            "byteLength" : 480,
            "byteOffset" : 28008
        },
        {
            "buffer" : 0,
            "byteLength" : 6912,
            "byteOffset" : 28488
        },
        {
            "buffer" : 0,
            "byteLength" : 6912,
            "byteOffset" : 35400
        },
        {
            "buffer" : 0,
            "byteLength" : 4608,
            "byteOffset" : 42312
        },
        {
            "buffer" : 0,
            "byteLength" : 6912,
            "byteOffset" : 46920
        },
        {
            "buffer" : 0,
            "byteLength" : 6912,
            "byteOffset" : 53832
        },
        {
            "buffer" : 0,
            "byteLength" : 4608,
            "byteOffset" : 60744
        },
        {
            "buffer" : 0,
            "byteLength" : 6912,
            "byteOffset" : 65352
        },
        {
            "buffer" : 0,
            "byteLength" : 6912,
            "byteOffset" : 72264
        },
        {
            "buffer" : 0,
            "byteLength" : 4608,
            "byteOffset" : 79176
        },
        {
            "buffer" : 0,
            "byteLength" : 2880,
            "byteOffset" : 83784
        },
        {
            "buffer" : 0,
            "byteLength" : 2880,
            "byteOffset" : 86664
        },
        {
            "buffer" : 0,
            "byteLength" : 1920,
            "byteOffset" : 89544
        }
    ],
    "buffers" : [
        {
            "byteLength" : 91464,
            "uri" : "data:application/octet-stream;base64,"
        }
    ]
}
