{
    "asset" : {
        "generator" : "Khronos glTF Blender I/O v1.7.33",
        "version" : "2.0"
    },
    "scene" : 0,
    "scenes" : [
        {
            "name" : "Scene",
            "nodes" : [
                1
            ]
        }
    ],
    "nodes" : [
        {
            "mesh" : 0,
            "name" : "OptimalLeaf"
        },
        {
            "children" : [
                0
            ],
            "name" : "bird",
            "rotation" : [
                0.6061089038848877,
                -0.3641869127750397,
                0.36418694257736206,
                0.6061088442802429
            ],
            "scale" : [
                0.0009999999310821295,
                0.0009999999310821295,
                0.0010000000474974513
            ]
        }
    ],
    "materials" : [
        {
            "doubleSided" : true,
            "name" : "yellow_1",
            "pbrMetallicRoughness" : {
                "baseColorFactor" : [
                    0.9999925494194031,
                    0.33395111560821533,
                    0,
                    1
                ],
                "metallicFactor" : 0,
                "roughnessFactor" : 0.5527864098548889
            }
        }
    ],
    "meshes" : [
        {
            "name" : "Scene.001",
            "primitives" : [
                {
                    "attributes" : {
                        "POSITION" : 0,
                        "NORMAL" : 1
                    },
                    "indices" : 2,
                    "material" : 0
                }
            ]
        }
    ],
    "accessors" : [
        {
            "bufferView" : 0,
            "componentType" : 5126,
            "count" : 38315,
            "max" : [
                1791.92138671875,
                1518.5576171875,
                -1.4275668859481812
            ],
            "min" : [
                -1524.2218017578125,
                -1533.8682861328125,
                -5369.34765625
            ],
            "type" : "VEC3"
        },
        {
            "bufferView" : 1,
            "componentType" : 5126,
            "count" : 38315,
            "type" : "VEC3"
        },
        {
            "bufferView" : 2,
            "componentType" : 5123,
            "count" : 51840,
            "type" : "SCALAR"
        }
    ],
    "bufferViews" : [
        {
            "buffer" : 0,
            "byteLength" : 459780,
            "byteOffset" : 0
        },
        {
            "buffer" : 0,
            "byteLength" : 459780,
            "byteOffset" : 459780
        },
        {
            "buffer" : 0,
            "byteLength" : 103680,
            "byteOffset" : 919560
        }
    ],
    "buffers" : [
        {
            "byteLength" : 1023240,
            "uri" : "data:application/octet-stream;base64,"
        }
    ]
}
